<svg xmlns="http://www.w3.org/2000/svg" viewBox="95 67 754 1019" width="754" height="1019">
  <path d="M 430.137 68.481 C 354.358 75.653, 271.894 103.598, 211.125 142.699 C 195.666 152.646, 179.742 165.234, 167.122 177.485 C 144.144 199.790, 132.977 217.077, 126.762 239.968 C 124.954 246.624, 124.646 251.570, 124.108 282.500 L 123.500 317.500 119.634 325.500 C 113.641 337.901, 113.029 341.260, 112.980 362 L 112.937 380.500 108.621 383.116 C 103.643 386.134, 99.348 391.365, 97.427 396.748 C 95.676 401.653, 95.477 436.181, 97.170 441.101 C 99.160 446.881, 103.011 451.799, 108.111 455.071 L 113 458.208 113 591.016 C 113 701.370, 113.239 725.065, 114.414 731.162 C 120.083 760.572, 140.830 784.405, 168.067 792.798 C 176.850 795.505, 187.214 796.579, 227.500 798.961 C 246.200 800.066, 265.550 801.213, 270.500 801.508 C 286.033 802.436, 343.660 804.907, 363.500 805.496 C 373.950 805.806, 385.087 806.293, 388.250 806.579 L 394 807.099 394.024 797.800 C 394.062 783.069, 395.881 778.089, 402.990 773.250 L 406.296 771 471.180 771 C 543.070 771, 540.430 770.767, 545.618 777.563 C 548.357 781.150, 548.525 781.961, 549 793.911 L 549.500 806.484 561 806.203 C 623.636 804.670, 751.636 797.653, 767.432 794.885 C 795.881 789.901, 819.508 767.088, 828.321 736.093 C 830.478 728.506, 830.480 728.391, 830.767 592.963 L 831.055 457.425 834.633 455.498 C 839.599 452.824, 844.629 446.634, 846.559 440.821 C 847.888 436.822, 848.123 432.493, 847.843 417.212 L 847.500 398.500 844.426 393 C 842.302 389.200, 839.752 386.433, 836.176 384.047 L 831 380.595 831 363.934 C 831 343.484, 830.231 339.235, 824.234 326.529 L 819.500 316.500 818.927 280.500 C 818.361 244.887, 818.325 244.403, 815.611 235.500 C 803.301 195.114, 759.816 154.221, 694 121.136 C 640.107 94.044, 583.073 76.798, 523 69.429 C 504.570 67.168, 449.904 66.610, 430.137 68.481 M 396.999 121.512 C 332.968 132.505, 270.087 155.852, 215.496 188.902 C 201.149 197.588, 199.710 198.849, 196.380 205.656 C 194.146 210.222, 193.553 213.686, 191.918 231.711 C 189.656 256.639, 189.383 275, 191.273 275 C 191.973 275, 199.736 270.684, 208.523 265.409 C 268.320 229.511, 342.316 203.541, 411.978 194.003 C 421.880 192.647, 425.387 191.053, 428.040 186.701 C 429.853 183.729, 429.993 181.508, 429.996 155.654 C 429.999 131.668, 429.773 127.425, 428.364 125.040 C 424.426 118.373, 418.902 117.752, 396.999 121.512 M 518.106 121.564 C 516.430 122.975, 514.598 125.787, 514.035 127.814 C 513.464 129.869, 513.009 142.465, 513.006 156.282 C 513 182.847, 513.383 185.328, 518.180 189.745 C 520.825 192.180, 521.821 192.407, 550.267 197.031 C 610.572 206.835, 679.538 232.227, 733.500 264.495 C 742.300 269.757, 750.513 274.322, 751.750 274.639 C 753.958 275.206, 754 275.051, 753.993 266.358 C 753.985 255.065, 750.385 213.683, 748.984 208.777 C 746.265 199.255, 729.124 187.499, 689.500 167.978 C 642.088 144.620, 600.224 131.095, 545.525 121.461 C 527.067 118.210, 522.070 118.229, 518.106 121.564 M 459.539 255.044 C 402.683 263.981, 371.108 325.672, 397.623 376.016 C 408.727 397.100, 426.514 411.693, 449.500 418.578 C 461.646 422.216, 480.246 422.458, 492.500 419.136 C 520.495 411.549, 541.560 391.761, 551.195 364 C 554.395 354.779, 554.492 354.029, 554.477 338.500 C 554.460 320.205, 553.328 314.621, 546.942 301.326 C 533.823 274.011, 506.080 255.823, 475.567 254.533 C 470.030 254.298, 462.818 254.529, 459.539 255.044 M 115.524 398.276 C 112.536 401.264, 112.184 402.274, 111.522 409.755 C 110.546 420.774, 111.685 434.707, 113.870 438.500 C 114.872 440.238, 117.050 442.002, 119.049 442.694 C 123.278 444.156, 215.310 444.458, 221.500 443.029 C 223.891 442.477, 226.606 440.872, 228.250 439.037 L 231 435.968 231 419.935 C 231 407.559, 230.654 403.231, 229.483 400.967 C 226.358 394.924, 227.111 395, 170.450 395 L 118.800 395 115.524 398.276 M 717.615 397.088 C 712.686 400.965, 712 403.680, 712 419.302 C 712 432.610, 712.172 433.962, 714.270 437.102 C 718.960 444.122, 717.903 443.997, 772.282 443.998 C 824.352 444, 825.128 443.933, 829.500 439.036 C 831.295 437.026, 831.532 435.123, 831.816 420.477 C 832.076 407.098, 831.847 403.605, 830.549 401.095 C 827.350 394.908, 828.238 395, 771.685 395 C 721.059 395, 720.229 395.032, 717.615 397.088 M 279 641.604 C 262.557 644.226, 251.413 649.456, 242.064 658.935 C 230.671 670.487, 225 684.197, 225 700.184 C 225 716.483, 230.297 729.246, 241.993 741.125 C 260.377 759.799, 286.400 764.241, 309.947 752.727 C 318.397 748.595, 331.326 735.936, 335.712 727.500 C 341.902 715.595, 343.707 699.865, 340.463 686.103 C 335.811 666.372, 319.045 649.207, 299 643.656 C 293.017 641.999, 282.978 640.969, 279 641.604 M 651.970 642.058 C 638.470 644.048, 625.970 650.861, 616.141 661.587 C 581.278 699.634, 611.548 761.701, 663.500 758.692 C 685.799 757.400, 705.286 743.828, 713.988 723.529 C 716.385 717.937, 719.006 705.482, 718.983 699.792 C 718.909 681.480, 707.542 661.167, 691.578 650.818 C 680.864 643.871, 664.389 640.228, 651.970 642.058 M 161.936 825.750 C 154.332 829.606, 150.720 835.027, 150.188 843.385 C 149.724 850.680, 146.347 842.248, 185.672 932 C 200.825 966.584, 210.730 987.900, 213.689 992.288 C 223.591 1006.977, 240.853 1018.065, 257.500 1020.431 C 259.700 1020.743, 288.050 1023.019, 320.500 1025.488 C 352.950 1027.956, 394.575 1031.143, 413 1032.568 C 474.513 1037.328, 469.484 1037.475, 606 1026.935 C 696.449 1019.951, 695.288 1020.119, 709 1012.030 C 716.056 1007.868, 727.007 997.156, 731.488 990.034 C 733.033 987.578, 737.533 978.128, 741.487 969.034 C 745.442 959.940, 758.650 929.745, 770.839 901.933 C 791.929 853.810, 793 851.065, 793 845.143 C 793 837.798, 790.807 832.794, 785.575 828.200 C 779.131 822.542, 778.338 822.498, 734.889 825.375 C 678.256 829.125, 615.803 832.273, 571.827 833.594 L 549.153 834.275 548.827 846.969 C 548.517 859.014, 548.360 859.847, 545.767 863.243 C 540.423 870.241, 542.130 870.094, 469.922 869.780 L 405.343 869.500 401.671 866.698 C 395.829 862.242, 394.693 859.061, 394.194 845.750 L 393.753 834 386.627 834 C 363.009 833.998, 248.961 828.296, 196.121 824.474 C 168.854 822.502, 168.300 822.522, 161.936 825.750 M 227.500 1039.493 C 224.750 1040.241, 206.750 1046.917, 187.500 1054.329 C 122.027 1079.536, 121.073 1079.973, 123.955 1083.445 C 125.091 1084.814, 131.357 1085, 176.464 1085 C 231.206 1085, 233.200 1084.842, 240.056 1079.960 C 244.370 1076.888, 247.559 1069.346, 249.001 1058.805 C 250.408 1048.524, 249.477 1044.421, 244.857 1040.533 C 241.365 1037.595, 235.715 1037.256, 227.500 1039.493 M 708.763 1039.565 C 703.008 1042.688, 701.779 1049.444, 704.439 1063.343 C 706.576 1074.514, 709.129 1078.434, 717 1082.633 C 720.271 1084.378, 724.013 1084.519, 774.193 1084.791 C 826.225 1085.072, 827.918 1085.022, 828.911 1083.167 C 829.695 1081.701, 829.532 1080.889, 828.218 1079.708 C 825.674 1077.422, 735.125 1042.049, 725.200 1039.464 C 718.120 1037.620, 712.282 1037.656, 708.763 1039.565" stroke="none" fill="#25282b" fill-rule="evenodd"/>
</svg>
