<svg xmlns="http://www.w3.org/2000/svg" xmlns:xlink="http://www.w3.org/1999/xlink">
  <symbol xmlns="http://www.w3.org/2000/svg" viewBox="0 0 16 16" id="arrow-bar-down">
    <path fill-rule="evenodd" d="M1 3.5a.5.5 0 0 1 .5-.5h13a.5.5 0 0 1 0 1h-13a.5.5 0 0 1-.5-.5zM8 6a.5.5 0 0 1 .5.5v5.793l2.146-2.147a.5.5 0 0 1 .708.708l-3 3a.5.5 0 0 1-.708 0l-3-3a.5.5 0 0 1 .708-.708L7.5 12.293V6.5A.5.5 0 0 1 8 6z"/>
  </symbol>
  <symbol xmlns="http://www.w3.org/2000/svg" viewBox="0 0 16 16" id="arrow-bar-up">
    <path fill-rule="evenodd" d="M8 10a.5.5 0 0 0 .5-.5V3.707l2.146 2.147a.5.5 0 0 0 .708-.708l-3-3a.5.5 0 0 0-.708 0l-3 3a.5.5 0 1 0 .708.708L7.5 3.707V9.5a.5.5 0 0 0 .5.5zm-7 2.5a.5.5 0 0 1 .5-.5h13a.5.5 0 0 1 0 1h-13a.5.5 0 0 1-.5-.5z"/>
  </symbol>
  <symbol xmlns="http://www.w3.org/2000/svg" viewBox="0 0 16 16" id="arrows-expand">
    <path fill-rule="evenodd" d="M1 8a.5.5 0 0 1 .5-.5h13a.5.5 0 0 1 0 1h-13A.5.5 0 0 1 1 8zM7.646.146a.5.5 0 0 1 .708 0l2 2a.5.5 0 0 1-.708.708L8.5 1.707V5.5a.5.5 0 0 1-1 0V1.707L6.354 2.854a.5.5 0 1 1-.708-.708l2-2zM8 10a.5.5 0 0 1 .5.5v3.793l1.146-1.147a.5.5 0 0 1 .708.708l-2 2a.5.5 0 0 1-.708 0l-2-2a.5.5 0 0 1 .708-.708L7.5 14.293V10.5A.5.5 0 0 1 8 10z"/>
  </symbol>
  <symbol xmlns="http://www.w3.org/2000/svg" viewBox="0 0 16 16" id="arrow-return-right">
    <path fill-rule="evenodd" d="M1.5 1.5A.5.5 0 0 0 1 2v4.8a2.5 2.5 0 0 0 2.5 2.5h9.793l-3.347 3.346a.5.5 0 0 0 .708.708l4.2-4.2a.5.5 0 0 0 0-.708l-4-4a.5.5 0 0 0-.708.708L13.293 8.3H3.5A1.5 1.5 0 0 1 2 6.8V2a.5.5 0 0 0-.5-.5z"/>
  </symbol>
  <symbol xmlns="http://www.w3.org/2000/svg" viewBox="0 0 16 16" id="arrow-left-right">
    <path fill-rule="evenodd" d="M1 11.5a.5.5 0 0 0 .5.5h11.793l-3.147 3.146a.5.5 0 0 0 .708.708l4-4a.5.5 0 0 0 0-.708l-4-4a.5.5 0 0 0-.708.708L13.293 11H1.5a.5.5 0 0 0-.5.5zm14-7a.5.5 0 0 1-.5.5H2.707l3.147 3.146a.5.5 0 1 1-.708.708l-4-4a.5.5 0 0 1 0-.708l4-4a.5.5 0 1 1 .708.708L2.707 4H14.5a.5.5 0 0 1 .5.5z"/>
  </symbol>
  <symbol xmlns="http://www.w3.org/2000/svg" viewBox="0 0 16 16" id="check">
    <path d="M10.97 4.97a.75.75 0 0 1 1.07 1.05l-3.99 4.99a.75.75 0 0 1-1.08.02L4.324 8.384a.75.75 0 1 1 1.06-1.06l2.094 2.093 3.473-4.425a.267.267 0 0 1 .02-.022z"/>
  </symbol>
  <symbol xmlns="http://www.w3.org/2000/svg" viewBox="0 0 16 16" id="chevron-bar-expand">
    <path fill-rule="evenodd" d="M3.646 10.146a.5.5 0 0 1 .708 0L8 13.793l3.646-3.647a.5.5 0 0 1 .708.708l-4 4a.5.5 0 0 1-.708 0l-4-4a.5.5 0 0 1 0-.708zm0-4.292a.5.5 0 0 0 .708 0L8 2.207l3.646 3.647a.5.5 0 0 0 .708-.708l-4-4a.5.5 0 0 0-.708 0l-4 4a.5.5 0 0 0 0 .708zM1 8a.5.5 0 0 1 .5-.5h13a.5.5 0 0 1 0 1h-13A.5.5 0 0 1 1 8z"/>
  </symbol>
  <symbol xmlns="http://www.w3.org/2000/svg" viewBox="0 0 16 16" id="menu-app">
    <path d="M0 1.5A1.5 1.5 0 0 1 1.5 0h2A1.5 1.5 0 0 1 5 1.5v2A1.5 1.5 0 0 1 3.5 5h-2A1.5 1.5 0 0 1 0 3.5v-2zM1.5 1a.5.5 0 0 0-.5.5v2a.5.5 0 0 0 .5.5h2a.5.5 0 0 0 .5-.5v-2a.5.5 0 0 0-.5-.5h-2zM0 8a2 2 0 0 1 2-2h12a2 2 0 0 1 2 2v5a2 2 0 0 1-2 2H2a2 2 0 0 1-2-2V8zm1 3v2a1 1 0 0 0 1 1h12a1 1 0 0 0 1-1v-2H1zm14-1V8a1 1 0 0 0-1-1H2a1 1 0 0 0-1 1v2h14zM2 8.5a.5.5 0 0 1 .5-.5h9a.5.5 0 0 1 0 1h-9a.5.5 0 0 1-.5-.5zm0 4a.5.5 0 0 1 .5-.5h6a.5.5 0 0 1 0 1h-6a.5.5 0 0 1-.5-.5z"/>
  </symbol>
  <symbol xmlns="http://www.w3.org/2000/svg" viewBox="0 0 16 16" id="menu-button">
    <path d="M0 1.5A1.5 1.5 0 0 1 1.5 0h8A1.5 1.5 0 0 1 11 1.5v2A1.5 1.5 0 0 1 9.5 5h-8A1.5 1.5 0 0 1 0 3.5v-2zM1.5 1a.5.5 0 0 0-.5.5v2a.5.5 0 0 0 .5.5h8a.5.5 0 0 0 .5-.5v-2a.5.5 0 0 0-.5-.5h-8z"/>
    <path d="m7.823 2.823-.396-.396A.25.25 0 0 1 7.604 2h.792a.25.25 0 0 1 .177.427l-.396.396a.25.25 0 0 1-.354 0zM0 8a2 2 0 0 1 2-2h12a2 2 0 0 1 2 2v5a2 2 0 0 1-2 2H2a2 2 0 0 1-2-2V8zm1 3v2a1 1 0 0 0 1 1h12a1 1 0 0 0 1-1v-2H1zm14-1V8a1 1 0 0 0-1-1H2a1 1 0 0 0-1 1v2h14zM2 8.5a.5.5 0 0 1 .5-.5h9a.5.5 0 0 1 0 1h-9a.5.5 0 0 1-.5-.5zm0 4a.5.5 0 0 1 .5-.5h6a.5.5 0 0 1 0 1h-6a.5.5 0 0 1-.5-.5z"/>
  </symbol>
  <symbol xmlns="http://www.w3.org/2000/svg" viewBox="0 0 16 16" id="plus-lg">
    <path d="M8 4a.5.5 0 0 1 .5.5v3h3a.5.5 0 0 1 0 1h-3v3a.5.5 0 0 1-1 0v-3h-3a.5.5 0 0 1 0-1h3v-3A.5.5 0 0 1 8 4z"/>
  </symbol>
  <symbol xmlns="http://www.w3.org/2000/svg" viewBox="0 0 16 16" id="pencil">
    <path d="M12.146.146a.5.5 0 0 1 .708 0l3 3a.5.5 0 0 1 0 .708l-10 10a.5.5 0 0 1-.168.11l-5 2a.5.5 0 0 1-.65-.65l2-5a.5.5 0 0 1 .11-.168l10-10zM11.207 2.5 13.5 4.793 14.793 3.5 12.5 1.207 11.207 2.5zm1.586 3L10.5 3.207 4 9.707V10h.5a.5.5 0 0 1 .5.5v.5h.5a.5.5 0 0 1 .5.5v.5h.293l6.5-6.5zm-9.761 5.175-.106.106-1.528 3.821 3.821-1.528.106-.106A.5.5 0 0 1 5 12.5V12h-.5a.5.5 0 0 1-.5-.5V11h-.5a.5.5 0 0 1-.468-.325z"/>
  </symbol>
  <symbol xmlns="http://www.w3.org/2000/svg" viewBox="0 0 16 16" id="trash">
    <path d="M5.5 5.5A.5.5 0 0 1 6 6v6a.5.5 0 0 1-1 0V6a.5.5 0 0 1 .5-.5zm2.5 0a.5.5 0 0 1 .5.5v6a.5.5 0 0 1-1 0V6a.5.5 0 0 1 .5-.5zm3 .5a.5.5 0 0 0-1 0v6a.5.5 0 0 0 1 0V6z"/>
    <path fill-rule="evenodd" d="M14.5 3a1 1 0 0 1-1 1H13v9a2 2 0 0 1-2 2H5a2 2 0 0 1-2-2V4h-.5a1 1 0 0 1-1-1V2a1 1 0 0 1 1-1H6a1 1 0 0 1 1-1h2a1 1 0 0 1 1 1h3.5a1 1 0 0 1 1 1v1zM4.118 4 4 4.059V13a1 1 0 0 0 1 1h6a1 1 0 0 0 1-1V4.059L11.882 4H4.118zM2.5 3V2h11v1h-11z"/>
  </symbol>
  <symbol xmlns="http://www.w3.org/2000/svg" viewBox="0 0 16 16" id="toggles">
    <path d="M4.5 9a3.5 3.5 0 1 0 0 7h7a3.5 3.5 0 1 0 0-7h-7zm7 6a2.5 2.5 0 1 1 0-5 2.5 2.5 0 0 1 0 5zm-7-14a2.5 2.5 0 1 0 0 5 2.5 2.5 0 0 0 0-5zm2.45 0A3.49 3.49 0 0 1 8 3.5 3.49 3.49 0 0 1 6.95 6h4.55a2.5 2.5 0 0 0 0-5H6.95zM4.5 0h7a3.5 3.5 0 1 1 0 7h-7a3.5 3.5 0 1 1 0-7z"/>
  </symbol>
  <symbol xmlns="http://www.w3.org/2000/svg" viewBox="0 0 16 16" id="x">
    <path d="M4.646 4.646a.5.5 0 0 1 .708 0L8 7.293l2.646-2.647a.5.5 0 0 1 .708.708L8.707 8l2.647 2.646a.5.5 0 0 1-.708.708L8 8.707l-2.646 2.647a.5.5 0 0 1-.708-.708L7.293 8 4.646 5.354a.5.5 0 0 1 0-.708z"/>
  </symbol>
  <symbol xmlns="http://www.w3.org/2000/svg" viewBox="0 0 16 16" id="info">
    <path d="M8 15A7 7 0 1 1 8 1a7 7 0 0 1 0 14zm0 1A8 8 0 1 0 8 0a8 8 0 0 0 0 16z"/>
    <path d="m8.93 6.588-2.29.287-.082.38.45.083c.294.07.352.176.288.469l-.738 3.468c-.194.897.105 1.319.808 1.319.545 0 1.178-.252 1.465-.598l.088-.416c-.2.176-.492.246-.686.246-.275 0-.375-.193-.304-.533L8.93 6.588zM9 4.5a1 1 0 1 1-2 0 1 1 0 0 1 2 0z"/>
  </symbol>
  <symbol xmlns="http://www.w3.org/2000/svg" viewBox="0 0 16 16" id="upload">
    <path d="M8.5 11.5a.5.5 0 0 1-1 0V7.707L6.354 8.854a.5.5 0 1 1-.708-.708l2-2a.5.5 0 0 1 .708 0l2 2a.5.5 0 0 1-.708.708L8.5 7.707V11.5z"/>
    <path d="M14 14V4.5L9.5 0H4a2 2 0 0 0-2 2v12a2 2 0 0 0 2 2h8a2 2 0 0 0 2-2zM9.5 3A1.5 1.5 0 0 0 11 4.5h2V14a1 1 0 0 1-1 1H4a1 1 0 0 1-1-1V2a1 1 0 0 1 1-1h5.5v2z"/>
  </symbol>
  <symbol xmlns="http://www.w3.org/2000/svg" viewBox="0 0 16 16" id="download">
    <path d="M8.5 6.5a.5.5 0 0 0-1 0v3.793L6.354 9.146a.5.5 0 1 0-.708.708l2 2a.5.5 0 0 0 .708 0l2-2a.5.5 0 0 0-.708-.708L8.5 10.293V6.5z"/>
    <path d="M14 14V4.5L9.5 0H4a2 2 0 0 0-2 2v12a2 2 0 0 0 2 2h8a2 2 0 0 0 2-2zM9.5 3A1.5 1.5 0 0 0 11 4.5h2V14a1 1 0 0 1-1 1H4a1 1 0 0 1-1-1V2a1 1 0 0 1 1-1h5.5v2z"/>
  </symbol>
  <symbol xmlns="http://www.w3.org/2000/svg" viewBox="95 67 754 1019" id="fa-train">
    <path d="M 430.137 68.481 C 354.358 75.653, 271.894 103.598, 211.125 142.699 C 195.666 152.646, 179.742 165.234, 167.122 177.485 C 144.144 199.790, 132.977 217.077, 126.762 239.968 C 124.954 246.624, 124.646 251.570, 124.108 282.500 L 123.500 317.500 119.634 325.500 C 113.641 337.901, 113.029 341.260, 112.980 362 L 112.937 380.500 108.621 383.116 C 103.643 386.134, 99.348 391.365, 97.427 396.748 C 95.676 401.653, 95.477 436.181, 97.170 441.101 C 99.160 446.881, 103.011 451.799, 108.111 455.071 L 113 458.208 113 591.016 C 113 701.370, 113.239 725.065, 114.414 731.162 C 120.083 760.572, 140.830 784.405, 168.067 792.798 C 176.850 795.505, 187.214 796.579, 227.500 798.961 C 246.200 800.066, 265.550 801.213, 270.500 801.508 C 286.033 802.436, 343.660 804.907, 363.500 805.496 C 373.950 805.806, 385.087 806.293, 388.250 806.579 L 394 807.099 394.024 797.800 C 394.062 783.069, 395.881 778.089, 402.990 773.250 L 406.296 771 471.180 771 C 543.070 771, 540.430 770.767, 545.618 777.563 C 548.357 781.150, 548.525 781.961, 549 793.911 L 549.500 806.484 561 806.203 C 623.636 804.670, 751.636 797.653, 767.432 794.885 C 795.881 789.901, 819.508 767.088, 828.321 736.093 C 830.478 728.506, 830.480 728.391, 830.767 592.963 L 831.055 457.425 834.633 455.498 C 839.599 452.824, 844.629 446.634, 846.559 440.821 C 847.888 436.822, 848.123 432.493, 847.843 417.212 L 847.500 398.500 844.426 393 C 842.302 389.200, 839.752 386.433, 836.176 384.047 L 831 380.595 831 363.934 C 831 343.484, 830.231 339.235, 824.234 326.529 L 819.500 316.500 818.927 280.500 C 818.361 244.887, 818.325 244.403, 815.611 235.500 C 803.301 195.114, 759.816 154.221, 694 121.136 C 640.107 94.044, 583.073 76.798, 523 69.429 C 504.570 67.168, 449.904 66.610, 430.137 68.481 M 396.999 121.512 C 332.968 132.505, 270.087 155.852, 215.496 188.902 C 201.149 197.588, 199.710 198.849, 196.380 205.656 C 194.146 210.222, 193.553 213.686, 191.918 231.711 C 189.656 256.639, 189.383 275, 191.273 275 C 191.973 275, 199.736 270.684, 208.523 265.409 C 268.320 229.511, 342.316 203.541, 411.978 194.003 C 421.880 192.647, 425.387 191.053, 428.040 186.701 C 429.853 183.729, 429.993 181.508, 429.996 155.654 C 429.999 131.668, 429.773 127.425, 428.364 125.040 C 424.426 118.373, 418.902 117.752, 396.999 121.512 M 518.106 121.564 C 516.430 122.975, 514.598 125.787, 514.035 127.814 C 513.464 129.869, 513.009 142.465, 513.006 156.282 C 513 182.847, 513.383 185.328, 518.180 189.745 C 520.825 192.180, 521.821 192.407, 550.267 197.031 C 610.572 206.835, 679.538 232.227, 733.500 264.495 C 742.300 269.757, 750.513 274.322, 751.750 274.639 C 753.958 275.206, 754 275.051, 753.993 266.358 C 753.985 255.065, 750.385 213.683, 748.984 208.777 C 746.265 199.255, 729.124 187.499, 689.500 167.978 C 642.088 144.620, 600.224 131.095, 545.525 121.461 C 527.067 118.210, 522.070 118.229, 518.106 121.564 M 459.539 255.044 C 402.683 263.981, 371.108 325.672, 397.623 376.016 C 408.727 397.100, 426.514 411.693, 449.500 418.578 C 461.646 422.216, 480.246 422.458, 492.500 419.136 C 520.495 411.549, 541.560 391.761, 551.195 364 C 554.395 354.779, 554.492 354.029, 554.477 338.500 C 554.460 320.205, 553.328 314.621, 546.942 301.326 C 533.823 274.011, 506.080 255.823, 475.567 254.533 C 470.030 254.298, 462.818 254.529, 459.539 255.044 M 115.524 398.276 C 112.536 401.264, 112.184 402.274, 111.522 409.755 C 110.546 420.774, 111.685 434.707, 113.870 438.500 C 114.872 440.238, 117.050 442.002, 119.049 442.694 C 123.278 444.156, 215.310 444.458, 221.500 443.029 C 223.891 442.477, 226.606 440.872, 228.250 439.037 L 231 435.968 231 419.935 C 231 407.559, 230.654 403.231, 229.483 400.967 C 226.358 394.924, 227.111 395, 170.450 395 L 118.800 395 115.524 398.276 M 717.615 397.088 C 712.686 400.965, 712 403.680, 712 419.302 C 712 432.610, 712.172 433.962, 714.270 437.102 C 718.960 444.122, 717.903 443.997, 772.282 443.998 C 824.352 444, 825.128 443.933, 829.500 439.036 C 831.295 437.026, 831.532 435.123, 831.816 420.477 C 832.076 407.098, 831.847 403.605, 830.549 401.095 C 827.350 394.908, 828.238 395, 771.685 395 C 721.059 395, 720.229 395.032, 717.615 397.088 M 279 641.604 C 262.557 644.226, 251.413 649.456, 242.064 658.935 C 230.671 670.487, 225 684.197, 225 700.184 C 225 716.483, 230.297 729.246, 241.993 741.125 C 260.377 759.799, 286.400 764.241, 309.947 752.727 C 318.397 748.595, 331.326 735.936, 335.712 727.500 C 341.902 715.595, 343.707 699.865, 340.463 686.103 C 335.811 666.372, 319.045 649.207, 299 643.656 C 293.017 641.999, 282.978 640.969, 279 641.604 M 651.970 642.058 C 638.470 644.048, 625.970 650.861, 616.141 661.587 C 581.278 699.634, 611.548 761.701, 663.500 758.692 C 685.799 757.400, 705.286 743.828, 713.988 723.529 C 716.385 717.937, 719.006 705.482, 718.983 699.792 C 718.909 681.480, 707.542 661.167, 691.578 650.818 C 680.864 643.871, 664.389 640.228, 651.970 642.058 M 161.936 825.750 C 154.332 829.606, 150.720 835.027, 150.188 843.385 C 149.724 850.680, 146.347 842.248, 185.672 932 C 200.825 966.584, 210.730 987.900, 213.689 992.288 C 223.591 1006.977, 240.853 1018.065, 257.500 1020.431 C 259.700 1020.743, 288.050 1023.019, 320.500 1025.488 C 352.950 1027.956, 394.575 1031.143, 413 1032.568 C 474.513 1037.328, 469.484 1037.475, 606 1026.935 C 696.449 1019.951, 695.288 1020.119, 709 1012.030 C 716.056 1007.868, 727.007 997.156, 731.488 990.034 C 733.033 987.578, 737.533 978.128, 741.487 969.034 C 745.442 959.940, 758.650 929.745, 770.839 901.933 C 791.929 853.810, 793 851.065, 793 845.143 C 793 837.798, 790.807 832.794, 785.575 828.200 C 779.131 822.542, 778.338 822.498, 734.889 825.375 C 678.256 829.125, 615.803 832.273, 571.827 833.594 L 549.153 834.275 548.827 846.969 C 548.517 859.014, 548.360 859.847, 545.767 863.243 C 540.423 870.241, 542.130 870.094, 469.922 869.780 L 405.343 869.500 401.671 866.698 C 395.829 862.242, 394.693 859.061, 394.194 845.750 L 393.753 834 386.627 834 C 363.009 833.998, 248.961 828.296, 196.121 824.474 C 168.854 822.502, 168.300 822.522, 161.936 825.750 M 227.500 1039.493 C 224.750 1040.241, 206.750 1046.917, 187.500 1054.329 C 122.027 1079.536, 121.073 1079.973, 123.955 1083.445 C 125.091 1084.814, 131.357 1085, 176.464 1085 C 231.206 1085, 233.200 1084.842, 240.056 1079.960 C 244.370 1076.888, 247.559 1069.346, 249.001 1058.805 C 250.408 1048.524, 249.477 1044.421, 244.857 1040.533 C 241.365 1037.595, 235.715 1037.256, 227.500 1039.493 M 708.763 1039.565 C 703.008 1042.688, 701.779 1049.444, 704.439 1063.343 C 706.576 1074.514, 709.129 1078.434, 717 1082.633 C 720.271 1084.378, 724.013 1084.519, 774.193 1084.791 C 826.225 1085.072, 827.918 1085.022, 828.911 1083.167 C 829.695 1081.701, 829.532 1080.889, 828.218 1079.708 C 825.674 1077.422, 735.125 1042.049, 725.200 1039.464 C 718.120 1037.620, 712.282 1037.656, 708.763 1039.565" stroke="none" fill="currentColor" fill-rule="evenodd"/>
  </symbol>
  <symbol xmlns="http://www.w3.org/2000/svg" viewBox="0 0 512 512" id="fa-sliders">
    <path d="M0 416c0 17.7 14.3 32 32 32l54.7 0c12.3 28.3 40.5 48 73.3 48s61-19.7 73.3-48L480 448c17.7 0 32-14.3 32-32s-14.3-32-32-32l-246.7 0c-12.3-28.3-40.5-48-73.3-48s-61 19.7-73.3 48L32 384c-17.7 0-32 14.3-32 32zm128 0a32 32 0 1 1 64 0 32 32 0 1 1 -64 0zM320 256a32 32 0 1 1 64 0 32 32 0 1 1 -64 0zm32-80c-32.8 0-61 19.7-73.3 48L32 224c-17.7 0-32 14.3-32 32s14.3 32 32 32l246.7 0c12.3 28.3 40.5 48 73.3 48s61-19.7 73.3-48l54.7 0c17.7 0 32-14.3 32-32s-14.3-32-32-32l-54.7 0c-12.3-28.3-40.5-48-73.3-48zM192 128a32 32 0 1 1 0-64 32 32 0 1 1 0 64zm73.3-64C253 35.7 224.8 16 192 16s-61 19.7-73.3 48L32 64C14.3 64 0 78.3 0 96s14.3 32 32 32l86.7 0c12.3 28.3 40.5 48 73.3 48s61-19.7 73.3-48L480 128c17.7 0 32-14.3 32-32s-14.3-32-32-32L265.3 64z"/>
  </symbol>
  <symbol xmlns="http://www.w3.org/2000/svg" viewBox="0 0 640 512" id="fa-link-horizontal">
    <path transform="translate(0 448) scale(1 -1)" d="M144.60000610351562 384C64.69999694824219 384 0.0 319.29998779296875 0.0 239.39999389648438C0.0 168.70001220703125 51.100006103515625 108.39999389648438 120.80001831054688 96.79998779296875L122.70002746582031 96.5C140.10003662109375 93.60000610351562 156.60003662109375 105.39999389648438 159.50003051757812 122.79998779296875C162.4000244140625 140.19998168945312 150.60003662109375 156.69998168945312 133.2000274658203 159.5999755859375L131.30003356933594 159.89996337890625C92.50003051757812 166.39999389648438 64.00003051757812 200.0 64.00003051757812 239.39999389648438C64.00003051757812 283.8999938964844 100.10003662109375 320.0 144.6000518798828 320.0H303.40003967285156C347.90003967285156 320.0 384.0000457763672 283.8999938964844 384.0000457763672 239.39999389648438C384.0000457763672 200.0 355.5000457763672 166.39999389648438 316.6000518798828 159.89999389648438L314.70005798339844 159.60000610351562C297.30006408691406 156.70001220703125 285.5000457763672 140.20001220703125 288.4000701904297 122.80001831054688C291.3000946044922 105.4000244140625 307.80006408691406 93.60000610351562 325.20005798339844 96.50003051757812L327.1000518798828 96.80001831054688C396.80003356933594 108.4000244140625 447.9000701904297 168.80001831054688 447.9000701904297 239.4000244140625C448.0000457763672 319.29998779296875 383.30003356933594 384.0 303.40003967285156 384.0H144.6000518798828ZM495.40003967285156 0.0C575.3000335693359 0.0 640.0000457763672 64.70001220703125 640.0000457763672 144.60000610351562C640.0000457763672 215.3000030517578 588.9000701904297 275.6000061035156 519.2000579833984 287.20001220703125L517.3000335693359 287.5C499.90003967285156 290.4000244140625 483.40003967285156 278.60003662109375 480.5000457763672 261.20001220703125C477.6000518798828 243.8000030517578 489.40003967285156 227.30001831054688 506.80003356933594 224.40000915527344L508.7000274658203 224.10000610351562C547.6000213623047 217.60000610351562 576.1000213623047 184.0 576.1000213623047 144.60000610351562C576.1000213623047 100.10000610351562 540.0000457763672 64.0 495.50001525878906 64.0H336.6000518798828C292.1000518798828 64.0 256.0000457763672 100.10000610351562 256.0000457763672 144.60000610351562C256.0000457763672 184.0 284.5000457763672 217.60000610351562 323.40003967285156 224.10000610351562L325.30003356933594 224.40000915527344C342.7000274658203 227.3000030517578 354.5000457763672 243.8000030517578 351.6000213623047 261.20001220703125C348.6999969482422 278.60003662109375 332.2000274658203 290.4000244140625 314.80003356933594 287.5L312.90003967285156 287.20001220703125C243.1000518798828 275.6000061035156 192.0000457763672 215.3000030517578 192.0000457763672 144.60000610351562C192.0000457763672 64.70001220703125 256.70005798339844 0.0 336.6000518798828 0.0H495.40003967285156Z"/>
  </symbol>
  <symbol xmlns="http://www.w3.org/2000/svg" viewBox="0 0 576 512" id="fa-layer-group">
    <path d="M264.5 5.2c14.9-6.9 32.1-6.9 47 0l218.6 101c8.5 3.9 13.9 12.4 13.9 21.8s-5.4 17.9-13.9 21.8l-218.6 101c-14.9 6.9-32.1 6.9-47 0L45.9 149.8C37.4 145.8 32 137.3 32 128s5.4-17.9 13.9-21.8L264.5 5.2zM476.9 209.6l53.2 24.6c8.5 3.9 13.9 12.4 13.9 21.8s-5.4 17.9-13.9 21.8l-218.6 101c-14.9 6.9-32.1 6.9-47 0L45.9 277.8C37.4 273.8 32 265.3 32 256s5.4-17.9 13.9-21.8l53.2-24.6 152 70.2c23.4 10.8 50.4 10.8 73.8 0l152-70.2zm-152 198.2l152-70.2 53.2 24.6c8.5 3.9 13.9 12.4 13.9 21.8s-5.4 17.9-13.9 21.8l-218.6 101c-14.9 6.9-32.1 6.9-47 0L45.9 405.8C37.4 401.8 32 393.3 32 384s5.4-17.9 13.9-21.8l53.2-24.6 152 70.2c23.4 10.8 50.4 10.8 73.8 0z"/>
  </symbol>
  <symbol xmlns="http://www.w3.org/2000/svg" viewBox="0 0 576 512" id="fa-images">
    <path d="M160 32c-35.3 0-64 28.7-64 64l0 224c0 35.3 28.7 64 64 64l352 0c35.3 0 64-28.7 64-64l0-224c0-35.3-28.7-64-64-64L160 32zM396 138.7l96 144c4.9 7.4 5.4 16.8 1.2 24.6S480.9 320 472 320l-144 0-48 0-80 0c-9.2 0-17.6-5.3-21.6-13.6s-2.9-18.2 2.9-25.4l64-80c4.6-5.7 11.4-9 18.7-9s14.2 3.3 18.7 9l17.3 21.6 56-84C360.5 132 368 128 376 128s15.5 4 20 10.7zM192 128a32 32 0 1 1 64 0 32 32 0 1 1 -64 0zM48 120c0-13.3-10.7-24-24-24S0 106.7 0 120L0 344c0 75.1 60.9 136 136 136l320 0c13.3 0 24-10.7 24-24s-10.7-24-24-24l-320 0c-48.6 0-88-39.4-88-88l0-224z"/>
  </symbol>
  <symbol xmlns="http://www.w3.org/2000/svg" viewBox="0 0 16 16" id="copy">
    <path d="M4 1.5H3a2 2 0 0 0-2 2V14a2 2 0 0 0 2 2h10a2 2 0 0 0 2-2V3.5a2 2 0 0 0-2-2h-1v1h1a1 1 0 0 1 1 1V14a1 1 0 0 1-1 1H3a1 1 0 0 1-1-1V3.5a1 1 0 0 1 1-1h1v-1z"/>
    <path d="M9.5 1a.5.5 0 0 1 .5.5v1a.5.5 0 0 1-.5.5h-3a.5.5 0 0 1-.5-.5v-1a.5.5 0 0 1 .5-.5h3zm-3-1A1.5 1.5 0 0 0 5 1.5v1A1.5 1.5 0 0 0 6.5 4h3A1.5 1.5 0 0 0 11 2.5v-1A1.5 1.5 0 0 0 9.5 0h-3z"/>
  </symbol>
  <symbol xmlns="http://www.w3.org/2000/svg" viewBox="0 0 16 16" id="lock-fill">
    <path d="M8 1a2 2 0 0 1 2 2v4H6V3a2 2 0 0 1 2-2zm3 6V3a3 3 0 0 0-6 0v4a2 2 0 0 0-2 2v5a2 2 0 0 0 2 2h6a2 2 0 0 0 2-2V9a2 2 0 0 0-2-2z"/>
  </symbol>
  <symbol xmlns="http://www.w3.org/2000/svg" viewBox="0 0 512 512" id="fa-gear">
    <path d="M495.9 166.6c3.2 8.7 .5 18.4-6.4 24.6l-43.3 39.4c1.1 8.3 1.7 16.8 1.7 25.4s-.6 17.1-1.7 25.4l43.3 39.4c6.9 6.2 9.6 15.9 6.4 24.6c-4.4 11.9-9.7 23.3-15.8 34.3l-4.7 8.1c-6.6 11-14 21.4-22.1 31.2c-5.9 7.2-15.7 9.6-24.5 6.8l-55.7-17.7c-13.4 10.3-28.2 18.9-44 25.4l-12.5 57.1c-2 9.1-9 16.3-18.2 17.8c-13.8 2.3-28 3.5-42.5 3.5s-28.7-1.2-42.5-3.5c-9.2-1.5-16.2-8.7-18.2-17.8l-12.5-57.1c-15.8-6.5-30.6-15.1-44-25.4L83.1 425.9c-8.8 2.8-18.6 .3-24.5-6.8c-8.1-9.8-15.5-20.2-22.1-31.2l-4.7-8.1c-6.1-11-11.4-22.4-15.8-34.3c-3.2-8.7-.5-18.4 6.4-24.6l43.3-39.4C64.6 273.1 64 264.6 64 256s.6-17.1 1.7-25.4L22.4 191.2c-6.9-6.2-9.6-15.9-6.4-24.6c4.4-11.9 9.7-23.3 15.8-34.3l4.7-8.1c6.6-11 14-21.4 22.1-31.2c5.9-7.2 15.7-9.6 24.5-6.8l55.7 17.7c13.4-10.3 28.2-18.9 44-25.4l12.5-57.1c2-9.1 9-16.3 18.2-17.8C227.3 1.2 241.5 0 256 0s28.7 1.2 42.5 3.5c9.2 1.5 16.2 8.7 18.2 17.8l12.5 57.1c15.8 6.5 30.6 15.1 44 25.4l55.7-17.7c8.8-2.8 18.6-.3 24.5 6.8c8.1 9.8 15.5 20.2 22.1 31.2l4.7 8.1c6.1 11 11.4 22.4 15.8 34.3zM256 336a80 80 0 1 0 0-160 80 80 0 1 0 0 160z"/>
  </symbol>
</svg>
